<svg xmlns="http://www.w3.org/2000/svg" fill="none" viewBox="0 0 350 350" height="350" width="350">
<mask height="350" width="350" y="0" x="0" maskUnits="userSpaceOnUse" style="mask-type:luminance" id="mask0_2216_357">
<path fill="white" d="M0 0H350V350H0V0Z"></path>
</mask>
<g mask="url(#mask0_2216_357)">
<path fill="#242424" d="M341.87 122.39C333.233 95.0909 318.045 70.3212 297.631 50.2438C277.217 30.1664 252.199 15.3917 224.76 7.20996C246.13 75.95 296.7 117.75 341.87 122.39Z"></path>
<path fill="#242424" d="M345.73 136.78L345.12 134.12C276.82 131.98 208.24 86.83 189.65 0.60999C184.797 0.203324 179.89 -0.0033431 174.93 -0.0100098C162.85 -0.0100098 151.06 1.20999 139.67 3.53999C166.61 87.52 262.78 135.11 345.73 136.77V136.78Z"></path>
<path fill="#242424" d="M348.13 149.95C229.42 149.26 129.41 89.4901 98.4599 17.55C78.3091 27.3775 60.2215 40.9644 45.1699 57.5801C111.66 115.17 228.43 152.23 348.5 152.58C348.387 151.7 348.263 150.823 348.13 149.95Z"></path>
<path fill="#242424" d="M349.68 165.77C247.84 165.72 105.59 150.32 17.4202 98.6399C9.84782 114.23 4.64708 130.863 1.99023 147.99C99.1002 165.88 228.17 168.15 349.77 168.16L349.68 165.77ZM224.85 342.76C252.222 334.581 277.183 319.841 297.561 299.82C317.939 279.799 333.119 255.103 341.78 227.88C296.7 232.56 246.26 274.24 224.85 342.76Z"></path>
<path fill="#242424" d="M345.05 216.13L345.67 213.47C262.81 215.15 166.79 262.65 139.74 346.45C156.17 349.795 172.993 350.775 189.7 349.36C208.37 263.34 276.85 218.28 345.05 216.12V216.13Z"></path>
<path fill="#242424" d="M348.09 200.31L348.46 197.68C228.48 198.03 111.8 235.05 45.2998 292.56C60.3516 309.137 78.4282 322.689 98.5598 332.49C129.61 260.66 229.52 201 348.1 200.31H348.09Z"></path>
<path fill="#242424" d="M349.77 182.11C228.19 182.11 99.15 184.39 2.04004 202.27C4.71755 219.382 9.93508 235.999 17.52 251.57C105.69 199.94 247.85 184.55 349.66 184.5L349.77 182.11Z"></path>
</g>
</svg>
